# xmcd
#
# Track frame offsets:
#	150
#	19892
#	36492
#	60820
#	91505
#	119192
#	140897
#	157285
#	179942
#	203350
#	227282
#	245207
#
# Disc length: 3528 seconds
#
# Revision: 1
# Processed by: cddbd v1.5.2PL0 Copyright (c) Steve Scherf et al.
# Submitted via: audiograbber 1.83.01
#
DISCID=ac0dc60c
DTITLE=7 eskale - Barrenkaleko bluesak
DYEAR=1997
DGENRE=Euskal Musika
TTITLE0=Barrenkaleko bluesak I
TTITLE1=Morotik
TTITLE2=Utzi uste zintudan
TTITLE3=Gaupasada
TTITLE4=Aitortza
TTITLE5=Oroitzapenen zama
TTITLE6=Jakin nahi nuke
TTITLE7=Mozkorrarenak
TTITLE8=Gugatik ez balitz
TTITLE9=Bihar
TTITLE10=Barrenkaleko bluesak II
TTITLE11=Alaitu ezazu aurpegi hori
EXTD=
EXTT0=
EXTT1=
EXTT2=
EXTT3=
EXTT4=
EXTT5=
EXTT6=
EXTT7=
EXTT8=
EXTT9=
EXTT10=
EXTT11=
PLAYORDER=
